<svg width="60" height="60" viewBox="0 0 60 60" fill="none" xmlns="http://www.w3.org/2000/svg">
<circle cx="30" cy="30" r="30" fill="#FED337"/>
<path d="M25.2814 31.6287C24.2341 32.1523 23.3613 32.9299 22.7107 33.8978C22.3458 34.4532 22.3458 35.1514 22.7107 35.7068C23.3613 36.6747 24.2341 37.4523 25.2814 37.9759" stroke="white" stroke-width="2.38023" stroke-linecap="round" stroke-linejoin="round"/>
<path d="M35.1354 31.6287C36.1827 32.1523 37.0555 32.9299 37.7061 33.8978C38.0711 34.4532 38.0711 35.1514 37.7061 35.7068C37.0555 36.6747 36.1827 37.4523 35.1354 37.9759" stroke="white" stroke-width="2.38023" stroke-linecap="round" stroke-linejoin="round"/>
<path d="M25.2814 45.91H34.8023C42.7364 45.91 45.91 42.7364 45.91 34.8023V25.2814C45.91 17.3473 42.7364 14.1736 34.8023 14.1736H25.2814C17.3473 14.1736 14.1736 17.3473 14.1736 25.2814V34.8023C14.1736 42.7364 17.3473 45.91 25.2814 45.91Z" stroke="white" stroke-width="2.38023" stroke-linecap="round" stroke-linejoin="round"/>
<path d="M14.5386 23.7104L45.0372 23.6946" stroke="white" stroke-width="2.38023" stroke-linecap="round" stroke-linejoin="round"/>
</svg>
