<svg width="60" height="60" viewBox="0 0 60 60" fill="none" xmlns="http://www.w3.org/2000/svg">
<circle cx="30" cy="30" r="30" fill="#8512F6"/>
<path d="M31.6446 15.6335L41.0068 19.791C43.7044 20.9811 43.7044 22.9488 41.0068 24.1389L31.6446 28.2963C30.5814 28.7724 28.8359 28.7724 27.7728 28.2963L18.4105 24.1389C15.7129 22.9488 15.7129 20.9811 18.4105 19.791L27.7728 15.6335C28.8359 15.1575 30.5814 15.1575 31.6446 15.6335Z" stroke="white" stroke-width="2.38023" stroke-linecap="round" stroke-linejoin="round"/>
<path d="M15.7605 28.455C15.7605 29.7879 16.7602 31.3272 17.982 31.8667L28.7566 36.6589C29.5817 37.0238 30.5179 37.0238 31.3272 36.6589L42.1017 31.8667C43.3236 31.3272 44.3233 29.7879 44.3233 28.455" stroke="white" stroke-width="2.38023" stroke-linecap="round" stroke-linejoin="round"/>
<path d="M15.7605 36.3891C15.7605 37.8648 16.6332 39.1978 17.982 39.8008L28.7566 44.593C29.5817 44.9579 30.5179 44.9579 31.3272 44.593L42.1017 39.8008C43.4505 39.1978 44.3233 37.8648 44.3233 36.3891" stroke="white" stroke-width="2.38023" stroke-linecap="round" stroke-linejoin="round"/>
</svg>
