<svg width="60" height="60" viewBox="0 0 60 60" fill="none" xmlns="http://www.w3.org/2000/svg">
<circle cx="30" cy="30" r="30" fill="#0FC27E"/>
<path fill-rule="evenodd" clip-rule="evenodd" d="M40.7692 16C38.9849 16 37.5385 17.4465 37.5385 19.2308C37.5385 19.7048 37.6406 20.1551 37.824 20.5607L32.1077 25.3975C31.5419 24.9101 30.8054 24.6154 30 24.6154C28.9247 24.6154 27.972 25.1407 27.3848 25.9488L22.4427 23.8896C22.4551 23.7743 22.4615 23.6571 22.4615 23.5385C22.4615 21.7542 21.0151 20.3077 19.2308 20.3077C17.4465 20.3077 16 21.7542 16 23.5385C16 25.3228 17.4465 26.7692 19.2308 26.7692C20.1181 26.7692 20.9218 26.4115 21.5057 25.8325L26.7742 28.0277C26.8684 29.7276 28.2766 31.0769 30 31.0769C31.7843 31.0769 33.2308 29.6305 33.2308 27.8462C33.2308 27.6623 33.2154 27.4821 33.1859 27.3066L39.3179 22.118C39.7543 22.3378 40.2473 22.4615 40.7692 22.4615C42.5535 22.4615 44 21.0151 44 19.2308C44 17.4465 42.5535 16 40.7692 16ZM39.6923 19.2308C39.6923 18.636 40.1745 18.1538 40.7692 18.1538C41.364 18.1538 41.8462 18.636 41.8462 19.2308C41.8462 19.8255 41.364 20.3077 40.7692 20.3077C40.1745 20.3077 39.6923 19.8255 39.6923 19.2308ZM18.1538 23.5385C18.1538 22.9437 18.636 22.4615 19.2308 22.4615C19.8255 22.4615 20.3077 22.9437 20.3077 23.5385C20.3077 24.1332 19.8255 24.6154 19.2308 24.6154C18.636 24.6154 18.1538 24.1332 18.1538 23.5385ZM30 26.7692C29.4052 26.7692 28.9231 27.2514 28.9231 27.8462C28.9231 28.4409 29.4052 28.9231 30 28.9231C30.5948 28.9231 31.0769 28.4409 31.0769 27.8462C31.0769 27.2514 30.5948 26.7692 30 26.7692Z" fill="white"/>
<path fill-rule="evenodd" clip-rule="evenodd" d="M16 32.1538C16 30.3695 17.4465 28.9231 19.2308 28.9231C21.0151 28.9231 22.4615 30.3695 22.4615 32.1538V42.9231C22.4615 43.5178 21.9794 44 21.3846 44H17.0769C16.4822 44 16 43.5178 16 42.9231V32.1538ZM19.2308 31.0769C18.636 31.0769 18.1538 31.5591 18.1538 32.1538V41.8462H20.3077V32.1538C20.3077 31.5591 19.8255 31.0769 19.2308 31.0769Z" fill="white"/>
<path fill-rule="evenodd" clip-rule="evenodd" d="M30 33.2308C28.2157 33.2308 26.7692 34.6772 26.7692 36.4615V42.9231C26.7692 43.5178 27.2514 44 27.8462 44H32.1538C32.7486 44 33.2308 43.5178 33.2308 42.9231V36.4615C33.2308 34.6772 31.7843 33.2308 30 33.2308ZM28.9231 36.4615C28.9231 35.8668 29.4052 35.3846 30 35.3846C30.5948 35.3846 31.0769 35.8668 31.0769 36.4615V41.8462H28.9231V36.4615Z" fill="white"/>
<path fill-rule="evenodd" clip-rule="evenodd" d="M37.5385 27.8462C37.5385 26.0619 38.9849 24.6154 40.7692 24.6154C42.5535 24.6154 44 26.0619 44 27.8462V42.9231C44 43.5178 43.5178 44 42.9231 44H38.6154C38.0206 44 37.5385 43.5178 37.5385 42.9231V27.8462ZM40.7692 26.7692C40.1745 26.7692 39.6923 27.2514 39.6923 27.8462V41.8462H41.8462V27.8462C41.8462 27.2514 41.364 26.7692 40.7692 26.7692Z" fill="white"/>
</svg>
