<svg width="32" height="32" viewBox="0 0 32 32" fill="none" xmlns="http://www.w3.org/2000/svg">
<path d="M31.5 15.75C31.5 24.4485 24.4485 31.5 15.75 31.5C7.05152 31.5 0 24.4485 0 15.75C0 7.05152 7.05152 0 15.75 0C24.4485 0 31.5 7.05152 31.5 15.75Z" fill="#1ECC97"/>
<path d="M14.088 14.5905V18.0476C14.088 20.7609 15.5578 23.6467 18.2446 23.2687C19.0164 23.1601 19.8306 22.8916 20.6408 22.3852" stroke="white" stroke-width="3.27639"/>
<path d="M14.088 16.2287L14.088 10.495" stroke="white" stroke-width="3.27639"/>
<path d="M9.58301 16.2706C10.7661 16.2251 17.3644 15.4095 20.0948 11.041" stroke="#03314B" stroke-width="2.73033"/>
<path d="M22.1471 12.0921L18.2487 9.64113C18.1093 9.55349 18.1359 9.34292 18.2927 9.29275L22.0758 8.08254C22.1983 8.04335 22.3243 8.13231 22.3283 8.26088L22.4437 11.922C22.4486 12.077 22.2784 12.1746 22.1471 12.0921Z" fill="#03314B" stroke="#03314B" stroke-width="0.546066"/>
<circle cx="6.1968" cy="16.2664" r="0.258197" fill="#03314B"/>
<path d="M5.80969 17.3865L6.25924 17.4373C7.09668 17.5321 7.94301 17.515 8.77594 17.3865V17.3865" stroke="#03314B" stroke-width="0.322746" stroke-linecap="round"/>
<path d="M8.77576 17.3829L8.32631 17.4349C7.48904 17.5317 6.64268 17.5166 5.80952 17.3901V17.3901" stroke="#03314B" stroke-width="0.322746" stroke-linecap="round"/>
<path d="M6.84229 16.4385L6.93845 16.4467C7.55187 16.4985 8.16917 16.4813 8.77876 16.3955V16.3955" stroke="#03314B" stroke-width="0.322746" stroke-linecap="round"/>
<path d="M8.77685 16.3948L8.68115 16.4073C8.07069 16.4867 7.45325 16.4975 6.8404 16.4393V16.4393" stroke="#03314B" stroke-width="0.322746" stroke-linecap="round"/>
<path d="M7.521 15.407V15.407C7.93738 15.4355 8.35572 15.4074 8.76452 15.3233L8.77595 15.3209" stroke="#03314B" stroke-width="0.322746" stroke-linecap="round"/>
<path d="M8.77541 15.3403V15.3403C8.36261 15.4129 7.94361 15.4292 7.52982 15.3888L7.51834 15.3877" stroke="#03314B" stroke-width="0.322746" stroke-linecap="round"/>
</svg>
